<?xml version="1.0" standalone="no"?>
<!DOCTYPE svg PUBLIC "-//W3C//DTD SVG 20010904//EN"
 "http://www.w3.org/TR/2001/REC-SVG-20010904/DTD/svg10.dtd">
<svg version="1.0" xmlns="http://www.w3.org/2000/svg"
 width="200.000000pt" height="200.000000pt" viewBox="0 0 200.000000 200.000000"
 preserveAspectRatio="xMidYMid meet">
<metadata>
Created by potrace 1.11, written by Peter Selinger 2001-2013
</metadata>
<g transform="translate(0.000000,200.000000) scale(0.100000,-0.100000)"
fill="#000000" stroke="none">
<path d="M1274 1897 c-1 -56 -6 -86 -24 -123 -21 -42 -116 -148 -176 -194
-134 -103 -195 -163 -222 -217 -39 -80 0 -175 123 -304 l47 -49 -44 -19 c-226
-98 -539 -259 -569 -292 -16 -18 -18 -83 -4 -167 5 -34 4 -43 -7 -41 -46 9
-202 -40 -270 -85 -94 -61 -47 -110 127 -131 90 -10 130 -16 155 -20 150 -27
756 -27 910 0 14 2 70 11 125 20 183 30 354 101 355 146 0 4 -9 17 -19 30 -13
16 -19 19 -19 9 2 -39 -5 -51 -40 -69 -41 -21 -96 -37 -157 -46 -23 -3 -50 -7
-60 -9 -18 -3 -99 -13 -180 -22 -81 -8 -315 -17 -440 -17 -343 0 -617 39 -649
92 -7 10 37 45 69 54 11 3 41 12 66 20 33 11 46 12 46 4 0 -7 6 -31 12 -55 7
-23 9 -47 6 -52 -12 -20 47 -29 162 -25 65 2 145 6 178 10 93 9 167 16 200 20
32 4 98 11 185 21 30 3 66 7 79 9 14 3 48 -2 76 -11 58 -16 76 -12 111 23 24
24 24 24 49 5 23 -18 27 -19 79 -4 45 12 60 22 81 54 23 35 25 44 17 87 -8 45
-7 49 20 75 23 21 27 30 18 46 -6 11 -26 22 -46 26 -34 6 -35 8 -29 43 12 76
16 97 21 124 9 43 -62 105 -207 178 -33 17 -66 32 -72 33 -45 10 -67 20 -67
32 0 7 -22 48 -50 90 -27 42 -50 87 -50 101 0 35 25 88 57 120 31 33 148 123
158 123 4 0 13 7 22 15 8 8 19 13 24 10 5 -4 9 0 9 8 0 13 -9 12 -52 -5 -146
-55 -262 -137 -300 -212 -34 -65 -25 -165 19 -217 12 -14 10 -23 -14 -62 -39
-64 -64 -66 -101 -8 -83 129 -96 186 -57 267 24 53 54 85 160 179 92 81 108
98 148 162 53 85 65 179 33 256 -9 20 -18 37 -19 37 -2 0 -3 -33 -3 -73z"/>
<path d="M1850 302 c-87 -52 -298 -107 -490 -127 -19 -2 -69 -7 -110 -11 -97
-10 -575 -11 -660 -1 -118 14 -170 18 -170 13 0 -5 112 -31 175 -41 107 -16
158 -19 385 -19 258 -1 398 7 532 29 69 12 113 21 148 30 3 1 19 5 35 10 91
25 180 80 206 128 13 23 3 21 -51 -11z"/>
</g>
</svg>
